<svg width="25" height="26" viewBox="0 0 25 26" fill="none" xmlns="http://www.w3.org/2000/svg">
<path id="carrinho" d="M7.88968 25.2501C7.29169 25.2501 6.78324 25.0282 6.36433 24.5844C5.94542 24.1408 5.73597 23.6024 5.73597 22.9691C5.73597 22.3357 5.94542 21.7971 6.36433 21.3536C6.78324 20.91 7.29169 20.6882 7.88968 20.6882C8.48788 20.6882 8.99644 20.91 9.41534 21.3536C9.83425 21.7971 10.0437 22.3357 10.0437 22.9691C10.0437 23.6024 9.83425 24.1408 9.41534 24.5844C8.99644 25.0282 8.48788 25.2501 7.88968 25.2501ZM19.8199 25.2501C19.2217 25.2501 18.7131 25.0282 18.2942 24.5844C17.8753 24.1408 17.6658 23.6024 17.6658 22.9691C17.6658 22.3357 17.8753 21.7971 18.2942 21.3536C18.7131 20.91 19.2217 20.6882 19.8199 20.6882C20.4179 20.6882 20.9263 20.91 21.3452 21.3536C21.7641 21.7971 21.9736 22.3357 21.9736 22.9691C21.9736 23.6024 21.7641 24.1408 21.3452 24.5844C20.9263 25.0282 20.4179 25.2501 19.8199 25.2501ZM6.48834 4.64623L9.60828 11.5644H17.9994C18.0704 11.5644 18.1336 11.5456 18.189 11.508C18.2442 11.4704 18.2914 11.4182 18.3308 11.3513L21.6329 4.99717C21.6803 4.90528 21.6842 4.82382 21.6446 4.75278C21.6052 4.68174 21.5382 4.64623 21.4434 4.64623H6.48834ZM5.60335 2.69112H22.6933C23.1968 2.69112 23.5774 2.91802 23.8353 3.37183C24.0933 3.82541 24.1056 4.28866 23.8722 4.76158L19.9285 12.3262C19.7266 12.7022 19.4596 12.9951 19.1275 13.2047C18.7952 13.4145 18.431 13.5195 18.0351 13.5195H9.05439L7.62935 16.2765C7.56617 16.3768 7.56422 16.4855 7.62351 16.6023C7.68259 16.7194 7.77131 16.778 7.88968 16.778H21.9736V18.7331H7.88968C7.0691 18.7331 6.45254 18.3583 6.04 17.6089C5.62724 16.8594 5.61268 16.1112 5.9963 15.3641L7.75244 12.0205L3.27424 2.03942H0.930664V0.0843201H4.43402L5.60335 2.69112Z" fill="black"/>
</svg>
