<svg width="25" height="26" viewBox="0 0 25 26" fill="none" xmlns="http://www.w3.org/2000/svg">
<path id="perfil" d="M12.5516 12.6784C11.0015 12.6784 9.68544 12.1082 8.60347 10.9679C7.52121 9.8273 6.98008 8.44011 6.98008 6.80637C6.98008 5.17262 7.52121 3.7856 8.60347 2.64529C9.68544 1.50467 11.0015 0.934357 12.5516 0.934357C14.1018 0.934357 15.4178 1.50467 16.4998 2.64529C17.5821 3.7856 18.1232 5.17262 18.1232 6.80637C18.1232 8.44011 17.5821 9.8273 16.4998 10.9679C15.4178 12.1082 14.1018 12.6784 12.5516 12.6784ZM0.509888 25.5883V22.1347C0.509888 21.5544 0.674039 20.9953 1.00234 20.4574C1.33064 19.9194 1.78985 19.4538 2.37995 19.0604C3.94658 18.1111 5.59319 17.3832 7.31977 16.8769C9.04635 16.3705 10.7872 16.1173 12.5422 16.1173C14.2972 16.1173 16.0412 16.3705 17.7741 16.8769C19.507 17.3832 21.1567 18.1111 22.7233 19.0604C23.3134 19.4222 23.7726 19.88 24.1009 20.4337C24.4292 20.9874 24.5934 21.5544 24.5934 22.1347V25.5883H0.509888ZM2.84635 23.1258H22.2569V22.1347C22.2569 21.9348 22.1886 21.7468 22.052 21.5707C21.9152 21.3945 21.7266 21.245 21.4864 21.1222C20.1773 20.2869 18.7632 19.6542 17.2439 19.2242C15.7243 18.7946 14.1602 18.5797 12.5516 18.5797C10.9431 18.5797 9.379 18.7946 7.8594 19.2242C6.3401 19.6542 4.92595 20.2869 3.61693 21.1222C3.3752 21.2971 3.18633 21.4646 3.05034 21.6247C2.91435 21.7847 2.84635 21.9547 2.84635 22.1347V23.1258ZM12.5611 10.2159C13.4534 10.2159 14.2141 9.88112 14.8432 9.21152C15.4722 8.54192 15.7867 7.73689 15.7867 6.79642C15.7867 5.85595 15.4691 5.05423 14.8337 4.39127C14.1984 3.7283 13.4346 3.39681 12.5422 3.39681C11.6499 3.39681 10.8892 3.73177 10.2601 4.40168C9.63107 5.07128 9.31654 5.87631 9.31654 6.81678C9.31654 7.75694 9.63421 8.5585 10.2696 9.22147C10.9049 9.88444 11.6687 10.2159 12.5611 10.2159Z" fill="black"/>
</svg>
