<svg width="25" height="26" viewBox="0 0 25 26" fill="none" xmlns="http://www.w3.org/2000/svg">
<path id="carrinho" d="M7.88968 25.25C7.29169 25.25 6.78324 25.0281 6.36433 24.5843C5.94542 24.1407 5.73597 23.6023 5.73597 22.9691C5.73597 22.3356 5.94542 21.7971 6.36433 21.3535C6.78324 20.9099 7.29169 20.6881 7.88968 20.6881C8.48788 20.6881 8.99644 20.9099 9.41534 21.3535C9.83425 21.7971 10.0437 22.3356 10.0437 22.9691C10.0437 23.6023 9.83425 24.1407 9.41534 24.5843C8.99644 25.0281 8.48788 25.25 7.88968 25.25ZM19.8199 25.25C19.2217 25.25 18.7131 25.0281 18.2942 24.5843C17.8753 24.1407 17.6658 23.6023 17.6658 22.9691C17.6658 22.3356 17.8753 21.7971 18.2942 21.3535C18.7131 20.9099 19.2217 20.6881 19.8199 20.6881C20.4179 20.6881 20.9263 20.9099 21.3452 21.3535C21.7641 21.7971 21.9736 22.3356 21.9736 22.9691C21.9736 23.6023 21.7641 24.1407 21.3452 24.5843C20.9263 25.0281 20.4179 25.25 19.8199 25.25ZM6.48834 4.6462L9.60828 11.5643H17.9994C18.0704 11.5643 18.1336 11.5455 18.189 11.508C18.2442 11.4704 18.2914 11.4181 18.3308 11.3512L21.6329 4.99714C21.6803 4.90525 21.6842 4.82378 21.6446 4.75275C21.6052 4.68171 21.5382 4.6462 21.4434 4.6462H6.48834ZM5.60335 2.69109H22.6933C23.1968 2.69109 23.5774 2.91799 23.8353 3.3718C24.0933 3.82538 24.1056 4.28863 23.8722 4.76155L19.9285 12.3262C19.7266 12.7022 19.4596 12.995 19.1275 13.2047C18.7952 13.4145 18.431 13.5194 18.0351 13.5194H9.05439L7.62935 16.2764C7.56617 16.3768 7.56422 16.4854 7.62351 16.6023C7.68259 16.7194 7.77131 16.7779 7.88968 16.7779H21.9736V18.733H7.88968C7.0691 18.733 6.45254 18.3583 6.04 17.6089C5.62724 16.8594 5.61268 16.1111 5.9963 15.3641L7.75244 12.0205L3.27424 2.03939H0.930664V0.0842896H4.43402L5.60335 2.69109Z" fill="black"/>
</svg>
