<svg width="151" height="145" viewBox="0 0 151 145" fill="none" xmlns="http://www.w3.org/2000/svg">
<g id="Group 82">
<ellipse id="bola" cx="75.8296" cy="72.5" rx="75.0174" ry="72.5" fill="#9B9B9B"/>
<g id="usuario_login" filter="url(#filter0_d_665_164)">
<path d="M75.0481 29.0961C80.9684 29.0961 86.6461 31.3588 90.8324 35.3865C95.0186 39.4142 97.3704 44.877 97.3704 50.573C97.3704 56.269 95.0186 61.7318 90.8324 65.7595C86.6461 69.7872 80.9684 72.0499 75.0481 72.0499C69.1279 72.0499 63.4501 69.7872 59.2639 65.7595C55.0776 61.7318 52.7258 56.269 52.7258 50.573C52.7258 44.877 55.0776 39.4142 59.2639 35.3865C63.4501 31.3588 69.1279 29.0961 75.0481 29.0961ZM75.0481 82.7883C99.7142 82.7883 119.693 92.3992 119.693 104.265V115.004H30.4036V104.265C30.4036 92.3992 50.382 82.7883 75.0481 82.7883Z" fill="white"/>
</g>
</g>
<defs>
<filter id="filter0_d_665_164" x="26.4036" y="29.0961" width="97.2891" height="93.9076" filterUnits="userSpaceOnUse" color-interpolation-filters="sRGB">
<feFlood flood-opacity="0" result="BackgroundImageFix"/>
<feColorMatrix in="SourceAlpha" type="matrix" values="0 0 0 0 0 0 0 0 0 0 0 0 0 0 0 0 0 0 127 0" result="hardAlpha"/>
<feOffset dy="4"/>
<feGaussianBlur stdDeviation="2"/>
<feComposite in2="hardAlpha" operator="out"/>
<feColorMatrix type="matrix" values="0 0 0 0 0 0 0 0 0 0 0 0 0 0 0 0 0 0 0.25 0"/>
<feBlend mode="normal" in2="BackgroundImageFix" result="effect1_dropShadow_665_164"/>
<feBlend mode="normal" in="SourceGraphic" in2="effect1_dropShadow_665_164" result="shape"/>
</filter>
</defs>
</svg>
