<svg width="25" height="26" viewBox="0 0 25 26" fill="none" xmlns="http://www.w3.org/2000/svg">
<path id="perfil" d="M12.5515 12.6783C11.0014 12.6783 9.68531 12.1082 8.60335 10.9679C7.52109 9.82726 6.97996 8.44008 6.97996 6.80634C6.97996 5.17259 7.52109 3.78557 8.60335 2.64526C9.68531 1.50464 11.0014 0.934326 12.5515 0.934326C14.1017 0.934326 15.4177 1.50464 16.4997 2.64526C17.5819 3.78557 18.1231 5.17259 18.1231 6.80634C18.1231 8.44008 17.5819 9.82726 16.4997 10.9679C15.4177 12.1082 14.1017 12.6783 12.5515 12.6783ZM0.509766 25.5882V22.1347C0.509766 21.5544 0.673917 20.9953 1.00222 20.4573C1.33052 19.9194 1.78973 19.4537 2.37983 19.0604C3.94646 18.1111 5.59306 17.3832 7.31965 16.8768C9.04623 16.3705 10.787 16.1173 12.5421 16.1173C14.2971 16.1173 16.0411 16.3705 17.774 16.8768C19.5068 17.3832 21.1566 18.1111 22.7232 19.0604C23.3133 19.4222 23.7725 19.8799 24.1008 20.4337C24.4291 20.9874 24.5933 21.5544 24.5933 22.1347V25.5882H0.509766ZM2.84623 23.1258H22.2568V22.1347C22.2568 21.9348 22.1885 21.7468 22.0519 21.5707C21.915 21.3945 21.7265 21.245 21.4862 21.1222C20.1772 20.2869 18.7631 19.6542 17.2438 19.2242C15.7242 18.7945 14.1601 18.5797 12.5515 18.5797C10.943 18.5797 9.37888 18.7945 7.85928 19.2242C6.33998 19.6542 4.92582 20.2869 3.61681 21.1222C3.37507 21.2971 3.18621 21.4646 3.05022 21.6246C2.91422 21.7847 2.84623 21.9547 2.84623 22.1347V23.1258ZM12.561 10.2159C13.4533 10.2159 14.214 9.88109 14.843 9.21149C15.4721 8.54189 15.7866 7.73686 15.7866 6.79639C15.7866 5.85592 15.4689 5.0542 14.8336 4.39124C14.1983 3.72827 13.4344 3.39678 12.5421 3.39678C11.6497 3.39678 10.889 3.73174 10.26 4.40165C9.63095 5.07125 9.31642 5.87628 9.31642 6.81675C9.31642 7.75691 9.63409 8.55847 10.2694 9.22144C10.9048 9.88441 11.6686 10.2159 12.561 10.2159Z" fill="black"/>
</svg>
